<?xml version="1.0" encoding="UTF-8"?>
<svg xmlns="http://www.w3.org/2000/svg" width="32" height="33" fill="none">
  <path fill="#fff" d="M22.631.11c-.319.116-.681.464-.85.825-.118.244-.125.4-.125 2.803 0 2.488 0 2.553.138 2.804.075.142.225.348.343.464.357.355.613.425 1.57.458l.862.025-.031.174c-.113.561-.482 2.862-.463 2.907.012.032 1.119-.65 2.456-1.52l2.438-1.573h.731c.4 0 .875-.033 1.05-.071.431-.097.806-.4 1.012-.825l.175-.355V3.712c0-2.307-.012-2.539-.118-2.777-.144-.33-.613-.761-.931-.858-.176-.058-1.32-.077-4.113-.07-3.319 0-3.906.019-4.144.103Zm8.15 1.147.157.155v2.262c0 2.307-.013 2.443-.244 2.623-.069.052-.4.077-1.031.084h-.938l-1.613 1.038c-.887.573-1.624 1.03-1.637 1.018-.013-.013.056-.483.15-1.044l.169-1.012h-2.8l-.15-.161-.157-.155V3.732c0-2.314 0-2.34.138-2.488l.131-.148H30.631l.15.16Z"></path>
  <path fill="#fff" d="m23.7 2.655.019.535 3.081.02 3.075.013V2.127h-6.194l.02.528ZM23.7 4.782l.019.535 2.05.02 2.044.013V4.254H23.68l.02.528ZM28.875 4.802v.548h1V4.254h-1v.548ZM14.594 1.65c-.644.07-1.85.31-2.45.483A14.297 14.297 0 0 0 5.78 5.962 14.69 14.69 0 0 0 2.1 12.349l-.206.754-.456-.786c-.25-.432-.482-.8-.513-.819-.037-.025-.675.323-.856.465-.019.019 1.394 2.494 1.737 3.048.044.065.382-.116 1.544-.831l1.513-.935c.012-.013-.438-.818-.513-.915 0-.007-.3.174-.662.4-.363.231-.675.418-.7.418-.063 0 .187-.87.48-1.65 1.57-4.176 4.97-7.276 9.194-8.404a13.256 13.256 0 0 1 6.607 0l.669.174.15-.49c.112-.361.13-.503.075-.535-.132-.077-1.082-.31-1.832-.445-.569-.103-1.05-.142-2.112-.154a28.642 28.642 0 0 0-1.625.006Z"></path>
  <path fill="#fff" d="M14.969 5.395c-1.281.206-2.606.87-3.575 1.785-.863.819-1.606 2.108-1.937 3.37l-.17.633-.005 2.642v2.643l.162.354c.238.522.513.812 1.006 1.057l.444.22.169.554c.1.31.3.78.45 1.05.3.555 1.087 1.425 1.562 1.728.213.135.3.238.3.335 0 .16.15.122-2.2.567-.844.155-1.693.348-1.881.419-1 .387-1.762 1.205-2.144 2.307-.093.277-.187.516-.212.542-.019.032-.45-.38-.956-.903-1.244-1.295-1.25-1.108.156-2.571l1.081-1.115-1.906-1.966-1.906-1.972-1.382 1.437C.863 19.723.613 20.013.45 20.367c-.306.658-.406 1.147-.375 1.895.032.722.163 1.186.5 1.753.132.226 1.55 1.734 4.107 4.364 3.656 3.75 3.943 4.028 4.343 4.228 1.125.548 2.494.49 3.475-.148.169-.11.957-.813 1.744-1.554l1.438-1.353-.388-.4-.381-.406h5.512c3.031 0 5.513-.02 5.513-.051 0-.168-1.275-3.945-1.444-4.28-.269-.516-.913-1.18-1.4-1.45-.519-.277-.831-.361-2.625-.697-2.075-.386-1.906-.341-1.9-.502 0-.097.144-.252.475-.496.262-.194.594-.503.75-.684l.275-.335.731-.026c.588-.019.781-.051.982-.16.318-.175.568-.433.743-.761.132-.258.132-.29.132-4.06 0-3.417-.013-3.855-.113-4.339-.556-2.661-2.387-4.66-4.919-5.369-.356-.103-.706-.135-1.468-.154-.55-.013-1.082-.007-1.188.013Zm1.925 1.083c2.044.367 3.763 1.862 4.425 3.854.25.754.306 1.211.306 2.571v1.2l-.25-.097c-.244-.104-.25-.11-.25-.42v-.309h-.593c-1.52 0-2.95-.638-4.088-1.83l-.462-.484-.55.535c-1.238 1.219-2.507 1.78-4.026 1.78h-.593v.309c0 .31-.007.316-.257.419l-.256.103.031-1.496c.032-1.669.07-1.882.488-2.803.75-1.663 2.219-2.894 3.875-3.262.894-.193 1.425-.212 2.2-.07Zm-.487 6.367c.812.69 1.987 1.238 3 1.4.274.044.537.09.58.102.057.02.076.4.076 1.65 0 1.753-.044 2.082-.338 2.772l-.162.373-1.794.013-1.8.02V20.206l1.344.032 1.344.032-.294.213a4.5 4.5 0 0 1-1.538.696c-.619.142-1.575.097-2.137-.096-1.269-.445-2.238-1.47-2.669-2.81-.156-.49-.162-.593-.194-2.186-.031-1.824-.037-1.778.338-1.778.3 0 1.325-.284 1.837-.516.482-.206 1.569-.915 1.775-1.154.069-.077.144-.135.175-.135.032 0 .232.155.457.341Zm-5.594 3.152v.909l-.163-.155a1.516 1.516 0 0 1-.25-.328c-.106-.207-.112-.716-.018-.91.093-.18.312-.431.38-.431.026 0 .05.412.05.915Zm10.7-.522c.218.42.125.941-.225 1.276l-.163.155V15.069l.138.09c.075.052.187.194.25.316Zm.112 2.862c0 .432-.018.51-.156.644-.119.13-.213.161-.456.161h-.307l.144-.438c.081-.238.15-.477.15-.528 0-.084.363-.277.581-.316.026 0 .044.213.044.477ZM5.5 21.302l-.281.29-1.187-1.225-1.182-1.225.275-.29.282-.29 1.187 1.225 1.188 1.225-.282.29ZM4.288 22.59a1.627 1.627 0 0 0-.106 1.624c.187.374 4.168 4.434 4.475 4.57.48.206 1.225.09 1.562-.232.131-.123.131-.123 1.313 1.102l1.187 1.224-.325.316a3.709 3.709 0 0 1-.688.497c-.337.167-.418.18-1.08.18-1.176 0-.844.27-5.294-4.312-4.17-4.293-4.057-4.157-4.22-5.066-.137-.76.12-1.611.682-2.256l.288-.335 1.18 1.225 1.188 1.218-.162.245ZM16 22.32c.506 0 .9-.04 1.125-.104.188-.052.35-.09.357-.084.006.007-.332.368-.75.8l-.763.786-.775-.8-.775-.799.4.103c.262.065.662.104 1.181.097Zm-1.175 1.765 1.113 1.147 1.118-1.153 1.12-1.154 1.962.367c1.581.297 2.031.4 2.337.555.425.212.813.567 1.056.966.138.22.97 2.617.97 2.785 0 .026-2.4.051-5.332.051h-5.325l-.969-.999c-.531-.547-.993-.999-1.018-.999-.032 0-.457.374-.944.825-1.413 1.328-1.463 1.367-1.675 1.367-.163 0-.3-.11-.831-.651l-.644-.651.244-.741c.275-.845.518-1.277.893-1.599.488-.406.844-.522 2.756-.896 1-.187 1.87-.348 1.938-.354.081-.007.5.38 1.231 1.134Zm-.962 5.736-.332.342-1.187-1.225-1.188-1.23.338-.323.338-.329 1.175 1.212 1.18 1.218-.324.335ZM28.6 10.068c-.05.083-.456.78-.906 1.553l-.813 1.399.263.167c.144.09.325.206.4.258.075.051.162.09.187.09.031 0 .244-.335.481-.748.288-.49.45-.715.482-.657.025.045.119.361.206.696 1.063 4.035.3 8.373-2.056 11.763-.2.284-.369.548-.388.586-.025.065.638.67.738.67.075 0 .768-1.024 1.194-1.759 1.337-2.32 2-4.84 2.006-7.586 0-1.482-.206-2.978-.581-4.248a2.723 2.723 0 0 1-.107-.438c.019-.013.563.316 1.275.76l.2.13.263-.458c.143-.251.25-.464.237-.477a191.75 191.75 0 0 0-2.869-1.779c-.1-.051-.137-.038-.212.078Z"></path>
</svg>
