<svg width="300" height="80" viewBox="0 0 300 80" fill="none" xmlns="http://www.w3.org/2000/svg">
<path d="M147.213 7H129.864V19.7332H147.213V7Z" fill="#040000"/>
<path d="M147.152 28.1875H129.988V71.6817H147.152V28.1875Z" fill="#040000"/>
<path d="M115.177 7H98.0137V71.6813H115.177V7Z" fill="#040000"/>
<path d="M229.565 11.2177V10.8721H209.513L178.959 34.4226V7H162.172V71.6813H178.959V42.9104L212.367 71.6813H230.722V71.2956L193.707 38.56L229.565 11.2177Z" fill="#040000"/>
<path d="M59.2356 14.9664H65.4248V47.8593C65.2767 58.4143 56.6285 64.8164 47.4064 64.8164C38.1843 64.8164 29.5361 58.4143 29.388 47.8593V7H0L5.61534 14.9664H11.8169V47.2854C11.8169 66.1616 30.3136 73.6991 47.4064 73.6435C64.4961 73.6991 82.9959 66.1647 82.9959 47.2854V7H53.6203L59.2356 14.9664Z" fill="#040000"/>
<path d="M290.307 18.5001C283.893 12.3232 274.269 8.84605 264.464 9.05585C252.956 9.278 243.256 12.8539 236.415 19.401C230.291 25.257 227.332 33.063 227.332 41.3749C227.332 51.0752 231.417 60.0443 239.26 65.8047C246.844 71.3737 253.665 73.6446 264.847 73.6446C268.102 73.623 270.798 73.4687 273.566 73.009C287.111 70.7505 295.478 63.3611 298.684 55.2621L284.081 55.1942C281.841 59.4797 275.186 64.1633 264.665 64.1633C252.823 64.1633 245.283 55.1201 244.622 45.3797H299.943C300.513 33.9886 296.789 24.7449 290.31 18.5032L290.307 18.5001ZM244.749 35.7009L244.82 35.0376C246.125 26.7102 252.669 17.991 264.393 17.991C276.118 17.991 282.609 27.7531 283.322 35.0438L283.362 35.7009H244.746H244.749Z" fill="#040000"/>
</svg>

